<svg xmlns="http://www.w3.org/2000/svg" viewBox="0 0 726.19 160" width="726.19" height="160" role="img" aria-label="build-oracle lockup"><title>build-oracle lockup</title><defs></defs><g transform="scale(0.31)"><desc>A ring drawn around a bright core, with the signal element inside the ring.</desc><defs><radialGradient id="mk-build-oracle-fd0-halo" r="50%"><stop offset="0" stop-color="#ffab52" stop-opacity="0.34"/><stop offset="0.35" stop-color="#ffab52" stop-opacity="0.1"/><stop offset="1" stop-color="#ffab52" stop-opacity="0"/></radialGradient><radialGradient id="mk-build-oracle-fd0-core"><stop offset="0" stop-color="#fff7e8"/><stop offset="0.45" stop-color="#fff7e8" stop-opacity="0.96"/><stop offset="0.72" stop-color="#ffd592" stop-opacity="0.55"/><stop offset="1" stop-color="#ffab52" stop-opacity="0"/></radialGradient></defs><circle cx="256" cy="256" r="196" fill="none" stroke="#e6e1d6" stroke-width="18" opacity="1"/><polyline points="106,256 111,248.77 116,241.81 121,235.18 126,228.95 131,223.19 136,217.94 141,213.26 146,209.18 151,205.74 156,202.96 161,200.84 166,199.41 171,198.66 176,198.57 181,199.12 186,200.31 191,202.08 196,204.41 201,207.24 206,210.53 211,214.23 216,218.29 221,222.63 226,227.2 231,231.94 236,236.78 241,241.67 246,246.54 251,251.34 256,256 261,260.48 266,264.73 271,268.71 276,272.37 281,275.69 286,278.63 291,281.18 296,283.31 301,285.02 306,286.31 311,287.17 316,287.62 321,287.67 326,287.33 331,286.62 336,285.59 341,284.24 346,282.63 351,280.78 356,278.73 361,276.53 366,274.21 371,271.81 376,269.37 381,266.94 386,264.54 391,262.22 396,260 401,257.92 406,256" fill="none" stroke="#e6e1d6" stroke-width="12.6" stroke-opacity="1" stroke-linecap="round" stroke-linejoin="round"/><circle cx="256" cy="256" r="95.2" fill="url(#mk-build-oracle-fd0-halo)"/><circle cx="256" cy="256" r="38.08" fill="url(#mk-build-oracle-fd0-core)"/><polyline points="432.09,370.67 430.64,372.86 429.17,375.04 427.67,377.19 426.14,379.33 424.58,381.45 423,383.54 421.39,385.62 419.76,387.68 418.1,389.71 416.42,391.73 414.71,393.72 412.98,395.7 411.22,397.65 409.43,399.58 407.63,401.48 405.8,403.37 403.94,405.23 402.07,407.07 400.17,408.88 398.24,410.67 396.3,412.44 394.33,414.18 392.35,415.9 390.34,417.59 388.31,419.25 386.26,420.89 384.18,422.51 382.09,424.1 379.98,425.66 377.85,427.2 375.7,428.71 373.53,430.19 371.35,431.65 369.14,433.07 366.92,434.48 364.68,435.85 362.42,437.19 360.15,438.51 357.86,439.8 355.56,441.05" fill="none" stroke="#ff3d6e" stroke-width="1.7" stroke-opacity="0.9" stroke-linecap="round" stroke-linejoin="round"/><polyline points="433.73,371.74 432.27,373.95 430.78,376.14 429.26,378.32 427.72,380.48 426.15,382.61 424.56,384.73 422.93,386.83 421.28,388.9 419.61,390.96 417.91,392.99 416.19,395.01 414.44,397 412.66,398.97 410.86,400.91 409.04,402.84 407.19,404.74 405.32,406.62 403.43,408.47 401.51,410.3 399.57,412.11 397.61,413.89 395.62,415.65 393.61,417.38 391.59,419.09 389.54,420.77 387.47,422.43 385.38,424.06 383.27,425.66 381.14,427.24 378.98,428.79 376.82,430.32 374.63,431.81 372.42,433.28 370.2,434.72 367.95,436.14 365.69,437.52 363.41,438.88 361.12,440.21 358.81,441.51 356.48,442.78" fill="none" stroke="#ff8f3a" stroke-width="1.7" stroke-opacity="0.9" stroke-linecap="round" stroke-linejoin="round"/><polyline points="435.37,372.8 433.89,375.04 432.39,377.25 430.86,379.45 429.3,381.62 427.72,383.78 426.11,385.92 424.47,388.03 422.81,390.13 421.12,392.2 419.4,394.26 417.66,396.29 415.9,398.3 414.11,400.28 412.29,402.25 410.45,404.19 408.58,406.11 406.7,408.01 404.78,409.88 402.85,411.73 400.89,413.55 398.91,415.35 396.91,417.12 394.88,418.87 392.84,420.59 390.77,422.29 388.68,423.96 386.57,425.61 384.44,427.23 382.29,428.82 380.12,430.38 377.93,431.92 375.72,433.43 373.49,434.91 371.25,436.37 368.98,437.8 366.7,439.19 364.4,440.56 362.09,441.9 359.76,443.22 357.41,444.5" fill="none" stroke="#ffe04a" stroke-width="1.7" stroke-opacity="0.9" stroke-linecap="round" stroke-linejoin="round"/><polyline points="437,373.87 435.52,376.12 434,378.36 432.46,380.57 430.89,382.77 429.29,384.95 427.66,387.1 426.01,389.24 424.33,391.35 422.63,393.45 420.9,395.52 419.14,397.57 417.36,399.6 415.55,401.6 413.72,403.59 411.86,405.55 409.98,407.48 408.07,409.39 406.14,411.28 404.19,413.15 402.21,414.99 400.22,416.8 398.19,418.59 396.15,420.36 394.09,422.1 392,423.81 389.89,425.5 387.76,427.16 385.61,428.79 383.44,430.4 381.25,431.98 379.04,433.53 376.81,435.05 374.57,436.55 372.3,438.02 370.02,439.46 367.71,440.87 365.39,442.25 363.06,443.6 360.7,444.93 358.34,446.22" fill="none" stroke="#5dff8f" stroke-width="1.7" stroke-opacity="0.9" stroke-linecap="round" stroke-linejoin="round"/><polyline points="438.64,374.94 437.14,377.21 435.61,379.47 434.05,381.7 432.47,383.92 430.86,386.11 429.22,388.29 427.55,390.44 425.86,392.58 424.14,394.69 422.39,396.78 420.62,398.85 418.82,400.9 416.99,402.92 415.14,404.92 413.27,406.9 411.37,408.85 409.45,410.78 407.5,412.69 405.53,414.57 403.54,416.43 401.52,418.26 399.48,420.07 397.42,421.85 395.34,423.6 393.23,425.33 391.1,427.03 388.95,428.71 386.79,430.35 384.6,431.98 382.39,433.57 380.16,435.14 377.91,436.67 375.64,438.18 373.35,439.66 371.05,441.12 368.73,442.54 366.38,443.94 364.03,445.3 361.65,446.64 359.26,447.94" fill="none" stroke="#3fd8ff" stroke-width="1.7" stroke-opacity="0.9" stroke-linecap="round" stroke-linejoin="round"/><polyline points="440.28,376.01 438.77,378.3 437.22,380.57 435.65,382.83 434.05,385.07 432.42,387.28 430.77,389.48 429.09,391.65 427.38,393.8 425.64,395.93 423.88,398.04 422.09,400.13 420.28,402.2 418.44,404.24 416.57,406.26 414.68,408.25 412.77,410.22 410.83,412.17 408.86,414.09 406.87,415.99 404.86,417.87 402.83,419.71 400.77,421.54 398.69,423.33 396.59,425.1 394.46,426.85 392.31,428.57 390.15,430.26 387.96,431.92 385.75,433.55 383.52,435.16 381.27,436.74 379,438.29 376.71,439.82 374.41,441.31 372.08,442.78 369.74,444.21 367.37,445.62 365,447 362.6,448.35 360.19,449.66" fill="none" stroke="#5b6bff" stroke-width="1.7" stroke-opacity="0.9" stroke-linecap="round" stroke-linejoin="round"/><polyline points="441.92,377.07 440.39,379.39 438.83,381.68 437.25,383.96 435.64,386.21 433.99,388.45 432.32,390.66 430.63,392.86 428.9,395.03 427.15,397.18 425.37,399.31 423.57,401.41 421.74,403.5 419.88,405.56 418,407.59 416.09,409.61 414.16,411.59 412.2,413.56 410.22,415.5 408.21,417.42 406.18,419.31 404.13,421.17 402.06,423.01 399.96,424.82 397.84,426.61 395.69,428.37 393.53,430.1 391.34,431.8 389.13,433.48 386.9,435.13 384.65,436.76 382.38,438.35 380.09,439.91 377.79,441.45 375.46,442.96 373.11,444.44 370.75,445.89 368.37,447.31 365.97,448.7 363.55,450.06 361.11,451.38" fill="none" stroke="#c35cff" stroke-width="1.7" stroke-opacity="0.9" stroke-linecap="round" stroke-linejoin="round"/></g><path fill="#e6e1d6" d="M239.94 116.6Q235.97 116.6 232.45 115.02Q228.93 113.43 226.35 110.11Q223.77 106.78 222.48 101.43L225.36 102.12V115.71H214.45V46.57H225.36V80.5H222.88Q223.87 75.83 226.3 72.61Q228.73 69.39 232.25 67.65Q235.78 65.91 239.94 65.91Q245.89 65.91 250.71 68.94Q255.52 71.96 258.39 77.62Q261.27 83.27 261.27 91.21Q261.27 98.45 258.64 104.2Q256.01 109.96 251.25 113.28Q246.49 116.6 239.94 116.6ZM237.26 106.49Q241.13 106.49 244.06 104.6Q246.99 102.72 248.57 99.24Q250.16 95.77 250.16 91.21Q250.16 86.65 248.57 83.17Q246.99 79.7 244.06 77.82Q241.13 75.93 237.26 75.93Q233.4 75.93 230.47 77.87Q227.54 79.8 225.96 83.22Q224.37 86.65 224.37 91.21Q224.37 95.77 225.96 99.24Q227.54 102.72 230.47 104.6Q233.4 106.49 237.26 106.49ZM286.37 116.6Q280.61 116.6 276.7 114.32Q272.78 112.04 270.79 107.78Q268.81 103.51 268.81 97.46V66.81H279.82V94.48Q279.82 98.35 280.76 101.18Q281.71 104.01 283.84 105.49Q285.97 106.98 289.64 106.98Q293.91 106.98 296.34 104.75Q298.77 102.52 299.81 98.2Q300.85 93.89 300.85 87.84V66.81H311.86V115.71H300.85V105.2L302.74 105.89Q300.45 111.45 296.14 114.03Q291.82 116.6 286.37 116.6ZM322.28 115.71V66.81H333.29V115.71ZM321.78 58.77V46.57H333.79V58.77ZM354.42 116.6Q349.66 116.6 346.48 113.68Q343.31 110.75 343.31 104.3V46.57H354.32V102.12Q354.32 104.4 355.36 105.44Q356.4 106.49 358.09 106.49Q358.98 106.49 359.92 106.29Q360.87 106.09 361.86 105.79V115.12Q359.97 115.91 357.99 116.26Q356.01 116.6 354.42 116.6ZM387.25 116.6Q380.71 116.6 375.9 113.28Q371.08 109.96 368.51 104.2Q365.93 98.45 365.93 91.21Q365.93 83.27 368.75 77.62Q371.58 71.96 376.44 68.94Q381.3 65.91 387.25 65.91Q391.42 65.91 394.94 67.6Q398.46 69.29 400.89 72.51Q403.32 75.73 404.32 80.4L401.74 80.5V46.57H412.75V115.71H401.74V102.12L404.71 101.43Q403.42 106.78 400.8 110.11Q398.17 113.43 394.69 115.02Q391.22 116.6 387.25 116.6ZM389.93 106.49Q393.8 106.49 396.68 104.6Q399.56 102.72 401.14 99.24Q402.73 95.77 402.73 91.21Q402.73 86.65 401.14 83.22Q399.56 79.8 396.68 77.87Q393.8 75.93 389.93 75.93Q386.06 75.93 383.14 77.82Q380.21 79.7 378.57 83.17Q376.94 86.65 376.94 91.21Q376.94 95.77 378.57 99.24Q380.21 102.72 383.14 104.6Q386.06 106.49 389.93 106.49ZM420.68 90.22V82.08H445.29V90.22ZM475.15 116.6Q468.2 116.6 462.65 113.33Q457.09 110.06 453.97 104.3Q450.84 98.55 450.84 91.21Q450.84 83.87 453.97 78.12Q457.09 72.36 462.6 69.14Q468.1 65.91 475.15 65.91Q482.29 65.91 487.69 69.14Q493.1 72.36 496.28 78.12Q499.45 83.87 499.45 91.21Q499.45 98.55 496.32 104.3Q493.2 110.06 487.69 113.33Q482.19 116.6 475.15 116.6ZM475.24 106.88Q479.31 106.88 482.29 105Q485.26 103.11 486.85 99.54Q488.44 95.97 488.44 91.21Q488.44 86.35 486.85 82.83Q485.26 79.31 482.29 77.42Q479.31 75.54 475.24 75.54Q470.98 75.54 468 77.47Q465.03 79.4 463.44 82.88Q461.85 86.35 461.85 91.21Q461.85 95.97 463.44 99.54Q465.03 103.11 468 105Q470.98 106.88 475.24 106.88ZM507.58 115.71V66.81H518.69V80L516.61 80.3Q517.11 76.03 519.49 72.81Q521.87 69.58 525.29 67.75Q528.71 65.91 532.09 65.91Q534.47 65.91 536.65 66.51Q538.83 67.1 541.21 68.49L535.86 78.41Q534.76 77.72 533.03 77.27Q531.29 76.83 529.71 76.83Q527.62 76.83 525.59 77.62Q523.56 78.41 521.97 80.05Q520.38 81.69 519.59 84.27Q519.09 85.65 518.84 87.89Q518.6 90.12 518.6 94.09V115.71ZM577.22 115.71 576.43 107.48V84.86Q576.43 80.1 573.55 77.67Q570.68 75.24 565.52 75.24Q561.55 75.24 557.73 76.78Q553.91 78.31 550.74 81.49L544.59 74.25Q549.35 69.78 554.7 67.85Q560.06 65.91 566.41 65.91Q576.33 65.91 581.84 70.92Q587.34 75.93 587.34 84.86V115.71ZM562.04 116.6Q556.59 116.6 552.37 114.62Q548.16 112.64 545.83 109.07Q543.49 105.49 543.49 100.73Q543.49 96.67 545.23 93.69Q546.97 90.71 549.74 89.03Q552.12 87.54 555.3 86.89Q558.47 86.25 561.95 86.25H577.32V94.48H563.53Q561.75 94.48 559.96 94.83Q558.18 95.18 556.79 96.07Q555.8 96.86 555.15 98.05Q554.51 99.24 554.51 100.83Q554.51 104.01 556.94 105.84Q559.37 107.68 563.43 107.68Q567 107.68 569.93 106.09Q572.86 104.5 574.64 101.72Q576.43 98.95 576.43 95.48L579.8 100.93Q578.61 106.09 576.03 109.61Q573.45 113.13 569.88 114.87Q566.31 116.6 562.04 116.6ZM618.29 116.6Q612.54 116.6 608.12 114.57Q603.71 112.54 600.78 108.92Q597.86 105.3 596.37 100.73Q594.88 96.17 594.88 91.21Q594.88 86.25 596.37 81.69Q597.86 77.12 600.78 73.55Q603.71 69.98 608.12 67.95Q612.54 65.91 618.29 65.91Q625.53 65.91 630.94 69.39Q636.35 72.86 638.92 80.1L629.2 83.87Q628.01 80.1 625.33 77.77Q622.66 75.44 618.29 75.44Q613.93 75.44 611.2 77.72Q608.47 80 607.18 83.57Q605.89 87.14 605.89 91.21Q605.89 95.28 607.18 98.9Q608.47 102.52 611.2 104.75Q613.93 106.98 618.29 106.98Q622.66 106.98 625.33 104.7Q628.01 102.42 629.2 98.65L638.92 102.42Q636.35 109.56 630.94 113.08Q625.53 116.6 618.29 116.6ZM657.18 116.6Q652.42 116.6 649.24 113.68Q646.07 110.75 646.07 104.3V46.57H657.08V102.12Q657.08 104.4 658.12 105.44Q659.16 106.49 660.85 106.49Q661.74 106.49 662.68 106.29Q663.63 106.09 664.62 105.79V115.12Q662.73 115.91 660.75 116.26Q658.76 116.6 657.18 116.6ZM692.39 116.6Q686.24 116.6 681.73 114.62Q677.22 112.64 674.34 109.07Q671.46 105.49 670.07 100.98Q668.68 96.47 668.68 91.61Q668.68 86.75 670.02 82.13Q671.36 77.52 674.14 73.85Q676.92 70.18 681.28 68.05Q685.65 65.91 691.6 65.91Q697.25 65.91 701.47 67.85Q705.69 69.78 708.46 73.2Q711.24 76.63 712.58 80.99Q713.92 85.36 713.92 90.32Q713.92 91.01 713.87 92.3Q713.82 93.59 713.62 94.88H679.7Q680.09 100.73 683.66 103.81Q687.24 106.88 692.79 106.88Q696.86 106.88 700.23 105.59Q703.6 104.3 706.38 101.53L712.43 108.87Q709.36 111.64 706.28 113.33Q703.21 115.02 699.88 115.81Q696.56 116.6 692.39 116.6ZM703.11 89.32Q703.31 88.53 703.36 87.74Q703.4 86.94 703.4 86.15Q703.4 83.97 702.66 81.98Q701.92 80 700.43 78.46Q698.94 76.92 696.76 75.98Q694.58 75.04 691.8 75.04Q687.93 75.04 685.3 76.73Q682.67 78.41 681.23 81.04Q679.8 83.67 679.5 86.75H706.68Z"/></svg>
